<svg xmlns="http://www.w3.org/2000/svg" xml:space="preserve" width="2000" height="81" data-id="lg_WHuR6A50HFdrvIKZ7S" data-version="1" viewBox="0 0 2000 81"><g data-padding="20"><g transform="translate(10 1.441)scale(.96441)"><rect width="100" height="100" x="722.193" y="-493.827" fill="#3d9970" rx="10" ry="10" transform="matrix(.81 0 0 .81 160.64 400)"/><rect width="466.117" height="58.76" x="392.418" y="-388.88" fill="none" rx="0" ry="0" transform="translate(447.45 400.08)"/><path fill="#2f7c5a" d="M860.766 56.03q-1.35.47-3.1.68-1.74.21-4.81.21h-8.58q.68-.16 1.46-1.17.78-1.02.78-3.93V26.08q0-2.7-.73-3.72-.73-1.01-1.45-1.22h8.52q3.33 0 5.07.29 1.75.28 3.05.85 2.28 1.1 3.53 3.07 1.25 1.98 1.25 4.27 0 3.48-2.11 6-2.1 2.52-5.53 3.25 2.34.26 4.44 1.35 2.11 1.1 3.43 2.97 1.33 1.87 1.33 4.26 0 3.33-1.77 5.44-1.77 2.1-4.78 3.14m-1.46-31.25q-1.04-.78-2.23-1.17-1.2-.39-3.23-.39h-3.59v14.77h4.22q1.87 0 3.12-.57 1.24-.58 2.18-1.51.99-.99 1.56-2.39.57-1.41.57-2.86 0-1.77-.65-3.33t-1.95-2.55m1.09 16.8q-.98-.78-2.44-1.15-1.46-.36-3.95-.36h-3.75v14.77h4.94q3.75 0 5.85-1.77 2.11-1.77 2.11-5.62 0-3.59-2.76-5.87m14.62 15.34q0 .15.62-.24t1.14-1.45q.52-1.07.52-3.15v-26.1q0-2.08-.49-3.15t-1.12-1.43q-.62-.36-.62-.26h8.27q0-.1-.63.26-.62.36-1.14 1.43t-.52 3.15v26.1q0 2.08.52 3.15.52 1.06 1.14 1.43.63.36.63.26Zm44.98 0h-6.4l-16.33-18.2v13.41q0 2.6.73 3.64t1.35 1.15h-8.01q.63-.11 1.41-1.12.78-1.02.78-3.67V25.98q0-2.66-.73-3.64-.73-.99-1.46-1.2h8.01q-.62.1-1.35 1.12-.73 1.01-.73 3.72v12.58l12.33-12.27q2.96-2.97 2.96-4.06 0-.93-.73-1.09h8.17q-.84.1-2.63 1.12-1.79 1.01-4.6 3.82l-11.65 11.54 13.16 14.3q2.39 2.76 3.77 3.77 1.37 1.02 1.95 1.23m25.33-13.89h-12.95l-3.33 8.27q-.78 1.92-.78 3.17 0 1.72 1.56 2.45h-7.43q.52 0 1.51-1.04.98-1.04 2.28-4.11l13.58-32.29 13.46 32.44q1.15 2.81 2.21 3.85 1.07 1.04 1.69 1.15h-8.63q1.3-.63 1.3-1.93 0-1.09-.83-3.12Zm-12.06-2.13h11.23l-5.67-13.88Zm51.1 16.64q-2.7 0-5.2-.75-2.49-.76-4.47-2.11v-6.29q1.35 3.48 4.13 5.28 2.79 1.79 5.8 1.79 3.02 0 5.05-2 2.02-2 2.02-4.97 0-1.97-.8-3.38-.81-1.4-2.58-2.62-1.76-1.23-4.99-2.73-4.52-2.08-6.58-4.35-2.05-2.26-2.05-5.48 0-2.76 1.33-4.92 1.32-2.15 3.58-3.32 2.27-1.17 4.97-1.17 2.34 0 4.58.65 2.23.65 4.16 1.84v5.62q-1.25-2.86-3.77-4.45-2.53-1.58-5.13-1.58-2.96 0-4.78 1.92t-1.82 4.58q0 1.92 1.09 3.3t2.68 2.31q1.59.94 4.45 2.29 2.91 1.4 4.78 2.6t3.12 3.12 1.25 4.68q0 3.12-1.48 5.41-1.49 2.29-3.96 3.51t-5.38 1.22m56.16-.62h-8.06q.63-.11 1.35-1.12.73-1.02.73-3.77v-26l-13.62 31.46-13.83-31.41v25.69q0 2.81.91 3.92.91 1.12 1.63 1.23h-7.69q.78-.11 1.71-1.17.94-1.07.94-3.98V25.72q0-2.5-.88-3.44-.89-.93-1.77-1.14h7.02l12.74 29.07 12.53-29.07h6.29q-.67.1-1.45 1.09t-.78 3.64v26.37q0 2.6.78 3.58.78.99 1.45 1.1m27.51-13.89h-12.95l-3.33 8.27q-.78 1.92-.78 3.17 0 1.72 1.56 2.45h-7.43q.52 0 1.51-1.04.98-1.04 2.28-4.11l13.58-32.29 13.46 32.44q1.15 2.81 2.21 3.85 1.07 1.04 1.69 1.15h-8.63q1.3-.63 1.3-1.93 0-1.09-.83-3.12Zm-12.06-2.13h11.23l-5.67-13.88Zm38.79-1.98q2.39 0 4.16-1.11 1.77-1.12 2.68-2.92.91-1.79.91-3.77 0-2.02-.86-3.82-.86-1.79-2.63-2.94-1.77-1.14-4.31-1.14h-4.42v28.91q0 2.08.52 3.15.52 1.06 1.14 1.4t.62.24h-8.26q0 .1.62-.26.62-.37 1.12-1.41.49-1.04.49-3.12v-26q0-2.13-.49-3.25-.5-1.12-1.12-1.51t-.62-.23h10.29q4.06 0 6.68 1.33 2.63 1.32 3.8 3.43 1.17 2.1 1.17 4.6 0 2.08-.99 4.08t-2.83 3.49q-1.85 1.48-4.29 2.05l-.83.16 9.15 11.64q1.82 2.03 3.01 3.12 1.2 1.1 1.75 1.46.54.36.65.42h-6.09l-14.14-18Zm25.06-15.7q-2.29 0-3.79.88-1.51.89-2.19 2.24l.73-5.2h24.65l.73 5.2q-.68-1.35-2.19-2.24-1.51-.88-3.79-.88h-5.2v28.86q0 2.08.52 3.17t1.14 1.46q.62.36.62.21h-8.26q0 .15.62-.21.62-.37 1.12-1.43.49-1.07.49-3.2V23.22Zm48.21 34.32q-2.71 0-5.2-.75-2.5-.76-4.48-2.11v-6.29q1.36 3.48 4.14 5.28 2.78 1.79 5.8 1.79 3.01 0 5.04-2t2.03-4.97q0-1.97-.81-3.38-.8-1.4-2.57-2.62-1.77-1.23-4.99-2.73-4.53-2.08-6.58-4.35-2.06-2.26-2.06-5.48 0-2.76 1.33-4.92 1.33-2.15 3.59-3.32t4.96-1.17q2.34 0 4.58.65t4.16 1.84v5.62q-1.25-2.86-3.77-4.45-2.52-1.58-5.12-1.58-2.97 0-4.79 1.92t-1.82 4.58q0 1.92 1.1 3.3 1.09 1.38 2.67 2.31 1.59.94 4.45 2.29 2.91 1.4 4.78 2.6 1.88 1.2 3.12 3.12 1.25 1.92 1.25 4.68 0 3.12-1.48 5.41t-3.95 3.51-5.38 1.22m40.41-26.73q0 3.02-1.43 5.38-1.43 2.37-4.08 3.72t-6.24 1.35q-2.19 0-4.68-.46v11.33q0 2.03.52 3.1.52 1.06 1.14 1.43.63.36.63.26h-8.27q0 .1.62-.26.63-.37 1.12-1.41t.49-3.12V26.08q0-2.08-.49-3.17t-1.12-1.48q-.62-.39-.62-.29h10.19q2.65 0 4.37.34 1.71.34 3.01 1.01 2.34 1.2 3.59 3.46t1.25 4.86m-4 .68q0-3.69-2.29-5.98t-6.09-2.29h-4.05v15.55q2.23.41 4.68.41 3.64 0 5.69-2.1 2.06-2.11 2.06-5.59m29.57 11.54h-12.94l-3.33 8.27q-.78 1.92-.78 3.17 0 1.72 1.56 2.45h-7.44q.52 0 1.51-1.04t2.29-4.11l13.57-32.29 13.47 32.44q1.14 2.81 2.21 3.85 1.06 1.04 1.69 1.15h-8.63q1.3-.63 1.3-1.93 0-1.09-.84-3.12Zm-12.06-2.13h11.23l-5.67-13.88Zm56.99 12.84q-1.97 1.62-5.15 2.71-3.17 1.09-6.39 1.09-4.84 0-9-2.24-4.16-2.23-6.68-6.44-2.52-4.22-2.52-9.88 0-5.31 2.31-9.52 2.32-4.21 6.61-6.58 4.29-2.36 10.01-2.36 6.08 0 10.81 2.65v5.77q-1.61-2.86-4.68-4.55t-6.55-1.69q-4.42 0-7.67 2.08t-4.97 5.69q-1.71 3.62-1.71 8.09 0 5.04 1.95 8.79 1.95 3.74 5.28 5.74 3.32 2.01 7.43 2.01 6.61 0 10.92-3.85Zm27.56 3.18h-19.6q0 .15.62-.24.63-.39 1.12-1.56t.49-3.4V26.18q0-2.13-.49-3.25-.49-1.11-1.12-1.53-.62-.42-.62-.26h18.82v5.2q-.93-3.12-5.61-3.12h-7.23v14.77h8.94q1.04 0 1.77-.34t1.09-.7q.37-.37.42-.47v5.04q-.05-.1-.42-.46-.36-.37-1.06-.68-.71-.31-1.75-.31h-8.99v14.77h8.11q2.34 0 4.03-.97 1.69-.96 2.42-2.47Z"/><rect width="63.783" height="56.5" x="593.585" y="-387.75" fill="none" rx="0" ry="0" transform="translate(160.83 399.87)"/><path fill="#fff" d="M767.376 57.44q-.87-.19-1.95-.22-1.07-.02-2.2-.12-1.12-.1-2.17-.32t-1.81-.73q-.75-.51-1.14-1.39t-.2-2.3q-.05-.14-.24-.73-.2-.59-.42-1.22-.22-.64-.41-1.17-.2-.54-.2-.69-.05-.34.15-.68.19-.34.49-.59.29-.24.63-.41t.64-.22q.04.15.17.66.12.51.34 1.07t.51 1.03q.29.46.59.46.19 0 .39-.19.19-.2.56-.88.37-.69 1-1.96.64-1.26 1.71-3.36t2.71-5.23q1.64-3.12 4.03-7.47.44-.73 1.58-1.88 1.15-1.15 2.69-2.39 1.54-1.25 3.32-2.52t3.52-2.29q1.73-1.03 3.24-1.66 1.52-.64 2.49-.64.39 0 .91.03.51.02.66.61v.41q0 .32.02.69.02.36.02.68v.42q0 1.8-.58 3.24-.59 1.44-1.56 2.64-.98 1.2-2.27 2.29-1.3 1.1-2.67 2.27 0 .05-.02.15t-.02.2q0 .05.61.75.61.71 1.31 1.81.71 1.1 1.32 2.49t.61 2.86q0 3.07-1.78 6.03-1.78 2.95-4.49 5.29-2.71 2.35-5.93 3.76-3.23 1.42-6.16 1.42m-4.49-4.49q0 .68.54 1t1.22.39 1.39.02q.71-.04 1-.04 3.08 0 5.57-.91 2.49-.9 4.39-2.59 1.91-1.68 3.3-4.02 1.39-2.35 2.32-5.23 0-.1.02-.46.03-.37.03-.47 0-1.9-.56-2.95-.57-1.05-1.57-1.56-1-.52-2.41-.66-1.42-.15-3.13-.25-.24-.04-.71-.51-.46-.46-.51-.71-.1-.24.15-.73.24-.49.44-.59 1.95-.04 4-.85t3.74-2.17q1.68-1.37 2.75-3.23 1.08-1.85 1.08-4-1.81 0-3.83 1.25-2.03 1.24-3.91 3.02-1.88 1.79-3.39 3.79-1.52 2-2.35 3.51-.34.69-1.1 2.1-.75 1.42-1.71 3.23-.95 1.8-1.97 3.8-1.03 2.01-1.96 3.81-.92 1.81-1.66 3.27-.73 1.47-1.07 2.15-.05.1-.07.3-.03.19-.03.29m27.87-6.34q0-.78.1-1.73t.44-1.74q.34-.78 1-1.31.66-.54 1.78-.54 0 .63-.12 1.17t-.29 1.07q-.17.54-.3 1.15-.12.61-.12 1.34 0 1.86.49 3.47t1.49 2.81 2.49 1.88 3.54.68q.88 0 2.15-.39t2.54-.93q1.27-.53 2.34-1.07 1.08-.54 1.52-.78 1.07-.59 1.7-1.64.64-1.05.98-2.29.34-1.25.44-2.54t.1-2.32q0-1.66-.32-3.25-.32-1.58-.68-3.15-.37-1.56-.69-3.12-.31-1.56-.31-3.18.53-1.51 1.68-2.75 1.15-1.25 2.64-2.15 1.49-.91 3.2-1.44 1.7-.54 3.32-.64 1.31.34 2 .86.68.51.95 1.1.27.58.12 1.12-.14.54-.49.97-.53-1.17-1.39-1.56-.85-.39-1.9-.24-1.05.14-2.13.73-1.07.59-2.05 1.32-.97.73-1.71 1.54-.73.8-1.07 1.39 0 1.46.32 2.86.31 1.39.68 2.78t.68 2.78q.32 1.39.32 2.86 0 3.51-1.1 6.42-1.1 2.9-3.17 4.98-2.08 2.07-5.03 3.2-2.95 1.12-6.62 1.12-2.29 0-4.07-.93-1.79-.92-2.98-2.46-1.2-1.54-1.83-3.49-.64-1.96-.64-3.96"/></g><path fill="transparent" stroke="transparent" d="M719 0h562v81H719z"/></g></svg>