<svg xmlns="http://www.w3.org/2000/svg" version="1.1" xmlns:xlink="http://www.w3.org/1999/xlink" xmlns:svgjs="http://svgjs.dev/svgjs" width="1500" height="1500" viewBox="0 0 1500 1500"><rect width="1500" height="1500" fill="#ffffff"></rect><g transform="matrix(0.6666666666666666,0,0,0.6666666666666666,248.44244080996884,189.33333333333348)"><svg viewBox="0 0 321 360" data-background-color="#043f2d" preserveAspectRatio="xMidYMid meet" height="1682" width="1500" xmlns="http://www.w3.org/2000/svg" xmlns:xlink="http://www.w3.org/1999/xlink"><g id="tight-bounds" transform="matrix(1,0,0,1,0.5000234999999975,0)"><svg viewBox="0 0 320 360" height="360" width="320"><g><svg></svg></g><g><svg viewBox="0 0 320 360" height="360" width="320"><g><path transform="translate(-74.99272,-51.79039) scale(4.65793,4.65793)" d="M20.6 59.9l0.8 1-0.4-1.3c-0.1-0.6-0.8 0.1-0.4 0.3M21.5 59.3c0.3 0.5 0.6 1 0.6 1.5 0 0.7 0.6 1 1.1 1.2-0.7-0.8-1.1-3-1.7-2.7M59.9 16.9c1.7 0 3.3-0.2 5.1 0.2 4.4 1.1 8.1 3.3 10.6 6.4l7 11.2c0.3 2.8 0.9 5.9 0.8 9.3 0.7 0 0.6-1 1.4-1.2-0.8 2-1.2 4.5-1.4 7.4-0.5-1.6 0-4 0.1-5.3-0.7 1.1-1.1 0.3-1.1-0.2 0.1-0.8-0.3-0.7-0.6-1-1.1-1-1.8-2.1-2.6-3.8 0.5-1.3 0.6-3.2-1-4.2-0.5-0.3-1.1-0.8-1.4-1.6-0.4-1.1-1.1-2.4-0.9-4.1 0.1-0.5-1.5 1.1-2.4 0.4-3.9-2.7-7.8-5.8-12.5-8.4-2.5 0-4.3-0.9-5.2-2-0.8-1-0.2-2.3 1-2.4 0.7 0 1.5-0.2 2.1 0.2 0.1-0.4 0.5-0.9 1-0.9M50 14.6l0.2 0.1c1 0.2 1.5 1.6 2.6 1.1 0 0.7 0.1 1.4-0.1 1.9-0.3 0.8-1.2 0.8-1.9 0.8-6.7-0.4-10.6 2.4-14.7 4.8-1.1 0.7-2.3 1.2-3.2 2.1-4.3 4-9 7.7-10.1 15.1l-0.9 8.2c-0.1 0.9-1.1 1.8-0.9 2.9l0.7 4.9c-0.7-0.7-1.1 0.2-0.9 0.6 0.1 0.3 0.5 1.3 1.1 0.4 0.8 1.5 1.6 4.4 2.7 5.7 3.4 4 7.8 7.6 11.4 11.2 0.9-0.2 1.6-0.2 1.8-0.8 0.3 0.6-0.3 1.2-0.8 1.3 1.6 1 3.4 1.9 5.8 2.1 3.1 0.2 6 0.7 8.7 1.4 1.4-0.4 2.8-0.6 4.3-0.7 0.5 0 0.8-0.8 1.4-1l0.1-1c0.6 0.9 0.5-0.3 0.1-0.9 0.7 0.6 0.9 1.1 1.2 1.5 0-0.3 0.8-1.4 0.8-0.1l0.2-1.3c0.3-0.2 0.4 1.1 0.7 0.2 0.3-0.9 0.9-0.2 1.5-0.5-0.2 0.4-0.1 1.2 0.6 0.7l0.8-0.7c0.5 1.2 1.3 0.7 1.7 0.5 4.4-2.8 8.8-6.1 13-9.4l-0.1 1.3 0.5-1.6c0.5 0.5 0.9 0.1 1.1-0.2 0.6-1 1.4-2 2.7-2.9-1.6 4.3-3.5 7.7-5.9 10.5l-1 1.2c0 0.7-0.2 1.6-1 1.7-0.4 0.1-1.2-0.2-1.8 0.4-0.3 0.4 0.7 1.2-0.1 0.6-0.7-0.5-1.4 0-2.2 0.2-0.6 0.2 0.4 0.8 0.6 1.2 0.2 0.4 0.4 0.8 0.3 1.3l-1.1-1.2c-1.3 0.7-2.1 2-3.2 3-0.5 0.4-0.3 1.1-0.3 1.7-0.7 0-1.5-0.2-1.9 0.2-0.3 0.4-0.2 1-0.2 1.6-1-0.1-1.1-1.6-2-1.3-0.9 0.2-1.9 0.3-2.7 0.8 0.6 1.2-1 0.5-0.8 0.7-1.5-0.9-2.8-1.6-4.4-1-3.4-1.1-7.6-0.6-10.7-0.2 0-0.5 0.1-1-0.1-1.1-0.2 0.5-0.8 0.3-0.7 0.3-1.9-1.3-3.8-2.1-5.8-3.2-1.8 0.2-3.5-0.7-4-1.2-1.4-1.3-3-0.6-4.3-0.9-2.8-0.7-3.8-3.6-4.1-5.6-0.2-1-1-1.4-1.3-1.3-1.3-4.2-3.3-8-4.9-11.9-0.4-1-0.3-2-0.3-3.1 0.5 0.2 1 0.1 0.9-0.6-0.5-3.3-1.7-5.8-3-8.2 0.7-3.4 0.8-7.4 2.4-10.4 1.4-2.7 4-4.1 5.8-6.4 0.6-0.8 0.6-1.9 1.2-2.6 2-2 4-4.1 6.2-5.9 1-0.8 2.2 0 3.7-0.3 0.5-1.8 2.5-3.4 4.4-2.9 0.8 0.2 2.4-1.9 2.9-2.1 0.8-0.3 0.4 0.8 0.4 1.5 1.9-1.5 4.5-2.3 6.9-3.2" fill="#000000" fill-rule="nonzero" stroke="none" stroke-width="1" stroke-linecap="butt" stroke-linejoin="miter" stroke-miterlimit="10" stroke-dasharray="" stroke-dashoffset="0" font-family="none" font-weight="none" font-size="none" text-anchor="none" style="mix-blend-mode: normal" data-fill-palette-color="tertiary"></path></g><g transform="matrix(1,0,0,1,64.00000000000001,127.21990635007757)"><svg viewBox="0 0 191.99999999999997 105.56018729984487" height="105.56018729984487" width="191.99999999999997"><g><svg viewBox="0 0 191.99999999999997 105.56018729984487" height="105.56018729984487" width="191.99999999999997"><g><svg viewBox="0 0 191.99999999999997 105.56018729984487" height="105.56018729984487" width="191.99999999999997"><g transform="matrix(1,0,0,1,0,62.78283009518513)"><svg viewBox="0 0 191.99999999999997 42.77735720465974" height="42.77735720465974" width="191.99999999999997"><g id="textblocktransform"><svg viewBox="0 0 191.99999999999997 42.77735720465974" height="42.77735720465974" width="191.99999999999997" id="textblock"><g><svg viewBox="0 0 191.99999999999997 25.11254103742613" height="25.11254103742613" width="191.99999999999997"><g transform="matrix(1,0,0,1,0,0)"><svg width="191.99999999999997" viewBox="3 -39 380.71 49.800000000000004" height="25.11254103742613" data-palette-color="#e9efe7"><path d="M18.35-26.95Q22.1-26.95 24.25-24.23 26.4-21.5 26.4-16.6L26.4-16.6Q26.4-12.5 24.95-8.58 23.5-4.65 20.33-2.02 17.15 0.6 12.3 0.6L12.3 0.6Q10.1 0.6 8 0.2 5.9-0.2 3-1.15L3-1.15 8.05-36.95 12.65-37.5 10.75-23.75Q12.55-25.35 14.4-26.15 16.25-26.95 18.35-26.95L18.35-26.95ZM17.05-23.3Q15.1-23.3 13.48-22.3 11.85-21.3 10.15-19.5L10.15-19.5 8-3.85Q9.25-3.4 10.25-3.23 11.25-3.05 12.65-3.05L12.65-3.05Q15.7-3.05 17.73-5.18 19.75-7.3 20.7-10.5 21.65-13.7 21.65-16.95L21.65-16.95Q21.65-23.3 17.05-23.3L17.05-23.3ZM35.5-26.35L40.05-26.35 36.35 0 31.8 0 35.5-26.35ZM38.85-32.75Q37.5-32.75 36.7-33.58 35.9-34.4 35.9-35.6L35.9-35.6Q35.9-37.05 36.9-38.02 37.9-39 39.35-39L39.35-39Q40.7-39 41.5-38.2 42.3-37.4 42.3-36.15L42.3-36.15Q42.3-34.7 41.3-33.73 40.3-32.75 38.85-32.75L38.85-32.75ZM55.55-37.5L53.35-21.75Q55.2-24.35 57.5-25.65 59.8-26.95 62.35-26.95L62.35-26.95Q65.15-26.95 66.95-25.28 68.75-23.6 68.75-20.95L68.75-20.95Q68.75-17.75 66.7-15.35 64.65-12.95 60.59-11.65L60.59-11.65 66.55 0 61.45 0 55.15-12.85Q59.8-14.15 61.84-15.93 63.9-17.7 63.9-20.45L63.9-20.45Q63.9-21.85 63.15-22.58 62.4-23.3 61.05-23.3L61.05-23.3Q58.8-23.3 56.45-21.38 54.1-19.45 52.5-15.8L52.5-15.8 50.3 0 45.75 0 50.95-36.95 55.55-37.5ZM86.69-26.95Q89.14-26.95 91.37-26.4 93.59-25.85 95.94-24.7L95.94-24.7 93.24-6Q93.14-5.2 93.14-4.9L93.14-4.9Q93.14-4 93.52-3.45 93.89-2.9 94.84-2.55L94.84-2.55 93.54 0.6Q91.44 0.35 90.29-0.7 89.14-1.75 88.89-3.8L88.89-3.8Q87.29-1.75 85.29-0.58 83.29 0.6 81.04 0.6L81.04 0.6Q77.04 0.6 74.84-2.15 72.64-4.9 72.64-9.5L72.64-9.5Q72.64-13.5 74.12-17.5 75.59-21.5 78.74-24.23 81.89-26.95 86.69-26.95L86.69-26.95ZM86.79-23.3Q83.64-23.3 81.57-21.18 79.49-19.05 78.52-15.88 77.54-12.7 77.54-9.45L77.54-9.45Q77.54-6.2 78.69-4.63 79.84-3.05 81.99-3.05L81.99-3.05Q84.04-3.05 85.67-4.3 87.29-5.55 89.04-7.9L89.04-7.9 91.09-22.45Q90.04-22.9 89.07-23.1 88.09-23.3 86.79-23.3L86.79-23.3ZM124.69-26.95Q129.69-26.95 133.34-23.7L133.34-23.7 131.09-20.95Q128.14-23.3 124.64-23.3L124.64-23.3Q122.24-23.3 120.81-22.35 119.39-21.4 119.39-19.75L119.39-19.75Q119.39-18.25 120.56-17.45 121.74-16.65 124.69-15.75L124.69-15.75Q128.54-14.55 130.34-12.73 132.14-10.9 132.14-7.85L132.14-7.85Q132.14-5.05 130.59-3.15 129.04-1.25 126.56-0.33 124.09 0.6 121.19 0.6L121.19 0.6Q115.34 0.6 111.44-3.2L111.44-3.2 114.04-5.85Q117.29-3.1 121.39-3.1L121.39-3.1Q124.54-3.1 125.94-4.42 127.34-5.75 127.34-7.4L127.34-7.4Q127.34-8.75 126.84-9.55 126.34-10.35 125.16-10.95 123.99-11.55 121.79-12.25L121.79-12.25Q117.99-13.4 116.36-15.08 114.74-16.75 114.74-19.45L114.74-19.45Q114.74-21.3 115.84-23.03 116.94-24.75 119.19-25.85 121.44-26.95 124.69-26.95L124.69-26.95ZM167.64-26.95Q170.29-26.95 171.86-25.18 173.44-23.4 173.44-20.4L173.44-20.4Q173.44-19.3 173.34-18.75L173.34-18.75 170.69 0 166.14 0 168.74-18.4Q168.84-19 168.84-19.95L168.84-19.95Q168.84-21.75 168.09-22.43 167.34-23.1 165.99-23.1L165.99-23.1Q164.09-23.1 162.24-21.13 160.39-19.15 158.54-15.9L158.54-15.9 156.29 0 151.74 0 154.34-18.4Q154.44-19 154.44-19.95L154.44-19.95Q154.44-21.75 153.69-22.43 152.94-23.1 151.59-23.1L151.59-23.1Q149.69-23.1 147.84-21.1 145.99-19.1 144.14-15.8L144.14-15.8 141.99 0 137.44 0 141.14-26.35 145.04-26.35 144.64-21.3Q146.59-24.05 148.66-25.5 150.74-26.95 153.24-26.95L153.24-26.95Q155.44-26.95 157.04-25.55 158.64-24.15 158.99-21.6L158.99-21.6Q160.99-24.25 163.11-25.6 165.24-26.95 167.64-26.95L167.64-26.95ZM193.53-26.95Q195.98-26.95 198.21-26.4 200.43-25.85 202.78-24.7L202.78-24.7 200.08-6Q199.98-5.2 199.98-4.9L199.98-4.9Q199.98-4 200.36-3.45 200.73-2.9 201.68-2.55L201.68-2.55 200.38 0.6Q198.28 0.35 197.13-0.7 195.98-1.75 195.73-3.8L195.73-3.8Q194.13-1.75 192.13-0.58 190.13 0.6 187.88 0.6L187.88 0.6Q183.88 0.6 181.68-2.15 179.48-4.9 179.48-9.5L179.48-9.5Q179.48-13.5 180.96-17.5 182.43-21.5 185.58-24.23 188.73-26.95 193.53-26.95L193.53-26.95ZM193.63-23.3Q190.48-23.3 188.41-21.18 186.33-19.05 185.36-15.88 184.38-12.7 184.38-9.45L184.38-9.45Q184.38-6.2 185.53-4.63 186.68-3.05 188.83-3.05L188.83-3.05Q190.88-3.05 192.51-4.3 194.13-5.55 195.88-7.9L195.88-7.9 197.93-22.45Q196.88-22.9 195.91-23.1 194.93-23.3 193.63-23.3L193.63-23.3ZM223.23-26.95Q224.48-26.95 225.88-26.6L225.88-26.6 224.53-22.15Q223.58-22.4 222.38-22.4L222.38-22.4Q219.93-22.4 218.11-20.28 216.28-18.15 214.83-13.95L214.83-13.95 212.83 0 208.28 0 211.98-26.35 215.88-26.35 215.58-20.95Q217.03-23.95 219.01-25.45 220.98-26.95 223.23-26.95L223.23-26.95ZM235.33-22.8L233.13-6.95Q233.03-5.95 233.03-5.65L233.03-5.65Q233.03-4.4 233.6-3.83 234.18-3.25 235.38-3.25L235.38-3.25Q236.28-3.25 237.15-3.53 238.03-3.8 239.18-4.35L239.18-4.35 240.68-1.15Q237.93 0.6 234.83 0.6L234.83 0.6Q231.78 0.6 230.13-0.98 228.48-2.55 228.48-5.45L228.48-5.45Q228.48-6.5 228.58-7.05L228.58-7.05 230.78-22.8 226.23-22.8 226.73-26.35 231.48-26.35 233.13-32.45 236.73-32.85 235.83-26.35 242.03-26.35 241.03-22.8 235.33-22.8ZM268.32-26.95Q273.32-26.95 276.97-23.7L276.97-23.7 274.72-20.95Q271.77-23.3 268.27-23.3L268.27-23.3Q265.87-23.3 264.45-22.35 263.02-21.4 263.02-19.75L263.02-19.75Q263.02-18.25 264.2-17.45 265.37-16.65 268.32-15.75L268.32-15.75Q272.17-14.55 273.97-12.73 275.77-10.9 275.77-7.85L275.77-7.85Q275.77-5.05 274.22-3.15 272.67-1.25 270.2-0.33 267.72 0.6 264.82 0.6L264.82 0.6Q258.97 0.6 255.07-3.2L255.07-3.2 257.67-5.85Q260.92-3.1 265.02-3.1L265.02-3.1Q268.17-3.1 269.57-4.42 270.97-5.75 270.97-7.4L270.97-7.4Q270.97-8.75 270.47-9.55 269.97-10.35 268.8-10.95 267.62-11.55 265.42-12.25L265.42-12.25Q261.62-13.4 260-15.08 258.37-16.75 258.37-19.45L258.37-19.45Q258.37-21.3 259.47-23.03 260.57-24.75 262.82-25.85 265.07-26.95 268.32-26.95L268.32-26.95ZM279.57 10.8L284.77-26.35 288.67-26.35 288.57-23.05Q290.52-25.2 292.47-26.08 294.42-26.95 296.57-26.95L296.57-26.95Q300.32-26.95 302.47-24.23 304.62-21.5 304.62-16.6L304.62-16.6Q304.62-12.55 303.17-8.6 301.72-4.65 298.57-2.02 295.42 0.6 290.62 0.6L290.62 0.6Q288.17 0.6 285.62-0.25L285.62-0.25 284.12 10.2 279.57 10.8ZM290.87-3.05Q293.92-3.05 295.95-5.18 297.97-7.3 298.92-10.5 299.87-13.7 299.87-16.95L299.87-16.95Q299.87-23.3 295.27-23.3L295.27-23.3Q293.32-23.3 291.7-22.3 290.07-21.3 288.37-19.5L288.37-19.5 286.22-3.85Q287.47-3.4 288.47-3.23 289.47-3.05 290.87-3.05L290.87-3.05ZM323.72-26.95Q326.17-26.95 328.39-26.4 330.62-25.85 332.97-24.7L332.97-24.7 330.27-6Q330.17-5.2 330.17-4.9L330.17-4.9Q330.17-4 330.54-3.45 330.92-2.9 331.87-2.55L331.87-2.55 330.57 0.6Q328.47 0.35 327.32-0.7 326.17-1.75 325.92-3.8L325.92-3.8Q324.32-1.75 322.32-0.58 320.32 0.6 318.07 0.6L318.07 0.6Q314.07 0.6 311.87-2.15 309.67-4.9 309.67-9.5L309.67-9.5Q309.67-13.5 311.14-17.5 312.62-21.5 315.77-24.23 318.92-26.95 323.72-26.95L323.72-26.95ZM323.82-23.3Q320.67-23.3 318.59-21.18 316.52-19.05 315.54-15.88 314.57-12.7 314.57-9.45L314.57-9.45Q314.57-6.2 315.72-4.63 316.87-3.05 319.02-3.05L319.02-3.05Q321.07-3.05 322.69-4.3 324.32-5.55 326.07-7.9L326.07-7.9 328.12-22.45Q327.07-22.9 326.09-23.1 325.12-23.3 323.82-23.3L323.82-23.3ZM351.57-26.95Q356.17-26.95 359.22-24.05L359.22-24.05 356.77-21.2Q355.57-22.25 354.37-22.7 353.17-23.15 351.62-23.15L351.62-23.15Q348.52-23.15 346.59-21.08 344.67-19 343.84-15.95 343.02-12.9 343.02-9.8L343.02-9.8Q343.02-3.3 348.37-3.3L348.37-3.3Q350.02-3.3 351.39-3.8 352.77-4.3 354.47-5.35L354.47-5.35 356.32-2.15Q352.47 0.6 348.07 0.6L348.07 0.6Q343.37 0.6 340.79-2.23 338.22-5.05 338.22-10.15L338.22-10.15Q338.22-13.95 339.62-17.82 341.02-21.7 344.02-24.33 347.02-26.95 351.57-26.95L351.57-26.95ZM383.71-20.25Q383.71-15.2 379.21-12.95 374.71-10.7 366.61-9.8L366.61-9.8Q366.76-3.25 372.31-3.25L372.31-3.25Q374.16-3.25 375.86-3.85 377.56-4.45 379.36-5.7L379.36-5.7 381.31-2.6Q376.86 0.6 371.86 0.6L371.86 0.6Q367.06 0.6 364.44-2.23 361.81-5.05 361.81-10.1L361.81-10.1Q361.81-14.05 363.19-17.93 364.56-21.8 367.61-24.38 370.66-26.95 375.36-26.95L375.36-26.95Q379.36-26.95 381.54-25 383.71-23.05 383.71-20.25L383.71-20.25ZM366.86-13.3Q373.06-14 375.99-15.45 378.91-16.9 378.91-20.1L378.91-20.1Q378.91-21.3 378.06-22.3 377.21-23.3 375.31-23.3L375.31-23.3Q371.51-23.3 369.46-20.4 367.41-17.5 366.86-13.3L366.86-13.3Z" opacity="1" transform="matrix(1,0,0,1,0,0)" fill="#000000" class="wordmark-text-0" data-fill-palette-color="primary" id="text-0"></path></svg></g></svg></g><g transform="matrix(1,0,0,1,0,28.7770634757715)"><svg viewBox="0 0 191.99999999999997 14.00029372888823" height="14.00029372888823" width="191.99999999999997"><g transform="matrix(1,0,0,1,0,0)"><svg width="191.99999999999997" viewBox="-0.45 -39 680.9000000000001 49.65" height="14.00029372888823" data-palette-color="#e9efe7"><path d="M25.7-26.35L13.5 0.25Q11.45 4.8 8.2 7.45 4.95 10.1-0.25 10.65L-0.25 10.65-0.45 7.05Q2.25 6.6 3.93 5.75 5.6 4.9 6.75 3.58 7.9 2.25 9.1 0L9.1 0 7.4 0 2.35-26.35 7.15-26.35 10.85-3.5 20.95-26.35 25.7-26.35ZM37 0.6Q32.15 0.6 29.53-2.3 26.9-5.2 26.9-10.3L26.9-10.3Q26.9-14 28.28-17.82 29.65-21.65 32.7-24.3 35.75-26.95 40.55-26.95L40.55-26.95Q45.4-26.95 48-24.05 50.6-21.15 50.6-16.05L50.6-16.05Q50.6-12.4 49.25-8.58 47.9-4.75 44.85-2.08 41.8 0.6 37 0.6L37 0.6ZM37.15-3.1Q40.3-3.1 42.25-5.28 44.2-7.45 45-10.53 45.8-13.6 45.8-16.55L45.8-16.55Q45.8-23.25 40.4-23.25L40.4-23.25Q37.25-23.25 35.3-21.08 33.35-18.9 32.53-15.83 31.7-12.75 31.7-9.8L31.7-9.8Q31.7-3.1 37.15-3.1L37.15-3.1ZM63.2 0.6Q60.15 0.6 58.43-1.13 56.7-2.85 56.7-5.9L56.7-5.9Q56.7-6.75 56.85-7.65L56.85-7.65 59.5-26.35 64.05-26.35 61.45-7.85Q61.3-6.95 61.3-6.2L61.3-6.2Q61.3-4.5 62.03-3.75 62.75-3 64.2-3L64.2-3Q66.45-3 68.38-4.7 70.3-6.4 72.2-9.2L72.2-9.2 74.6-26.35 79.15-26.35 75.45 0 71.55 0 71.9-4.85Q69.95-2.15 67.88-0.78 65.8 0.6 63.2 0.6L63.2 0.6ZM99.8-26.95Q101.05-26.95 102.45-26.6L102.45-26.6 101.1-22.15Q100.15-22.4 98.95-22.4L98.95-22.4Q96.5-22.4 94.68-20.28 92.85-18.15 91.4-13.95L91.4-13.95 89.4 0 84.85 0 88.55-26.35 92.45-26.35 92.15-20.95Q93.6-23.95 95.58-25.45 97.55-26.95 99.8-26.95L99.8-26.95ZM120.55-26.35L125.1-26.35 121.4 0 116.85 0 120.55-26.35ZM123.9-32.75Q122.55-32.75 121.75-33.58 120.95-34.4 120.95-35.6L120.95-35.6Q120.95-37.05 121.95-38.02 122.95-39 124.4-39L124.4-39Q125.75-39 126.55-38.2 127.35-37.4 127.35-36.15L127.35-36.15Q127.35-34.7 126.35-33.73 125.35-32.75 123.9-32.75L123.9-32.75ZM147.15-26.95Q150.05-26.95 151.73-25.18 153.4-23.4 153.4-20.3L153.4-20.3Q153.4-19.5 153.25-18.5L153.25-18.5 150.65 0 146.1 0 148.7-18.4Q148.8-19.5 148.8-19.85L148.8-19.85Q148.8-21.6 148.05-22.35 147.3-23.1 145.9-23.1L145.9-23.1Q143.6-23.1 141.48-21.05 139.35-19 137.55-15.8L137.55-15.8 135.35 0 130.8 0 134.5-26.35 138.4-26.35 138-21.2Q139.95-23.95 142.2-25.45 144.45-26.95 147.15-26.95L147.15-26.95ZM177.65-26.35L182.65-26.35 170.05 0 164.6 0 159.3-26.35 164.25-26.35 167.85-4.15 177.65-26.35ZM205.75-20.25Q205.75-15.2 201.25-12.95 196.75-10.7 188.65-9.8L188.65-9.8Q188.8-3.25 194.35-3.25L194.35-3.25Q196.2-3.25 197.9-3.85 199.6-4.45 201.4-5.7L201.4-5.7 203.35-2.6Q198.9 0.6 193.9 0.6L193.9 0.6Q189.1 0.6 186.48-2.23 183.85-5.05 183.85-10.1L183.85-10.1Q183.85-14.05 185.23-17.93 186.6-21.8 189.65-24.38 192.7-26.95 197.4-26.95L197.4-26.95Q201.4-26.95 203.58-25 205.75-23.05 205.75-20.25L205.75-20.25ZM188.9-13.3Q195.1-14 198.03-15.45 200.95-16.9 200.95-20.1L200.95-20.1Q200.95-21.3 200.1-22.3 199.25-23.3 197.35-23.3L197.35-23.3Q193.55-23.3 191.5-20.4 189.45-17.5 188.9-13.3L188.9-13.3ZM226.3-26.95Q229.2-26.95 230.88-25.18 232.55-23.4 232.55-20.3L232.55-20.3Q232.55-19.5 232.4-18.5L232.4-18.5 229.8 0 225.25 0 227.85-18.4Q227.95-19.5 227.95-19.85L227.95-19.85Q227.95-21.6 227.2-22.35 226.45-23.1 225.05-23.1L225.05-23.1Q222.75-23.1 220.63-21.05 218.5-19 216.7-15.8L216.7-15.8 214.5 0 209.95 0 213.65-26.35 217.55-26.35 217.15-21.2Q219.1-23.95 221.35-25.45 223.6-26.95 226.3-26.95L226.3-26.95ZM246.95-22.8L244.75-6.95Q244.65-5.95 244.65-5.65L244.65-5.65Q244.65-4.4 245.23-3.83 245.8-3.25 247-3.25L247-3.25Q247.9-3.25 248.78-3.53 249.65-3.8 250.8-4.35L250.8-4.35 252.3-1.15Q249.55 0.6 246.45 0.6L246.45 0.6Q243.4 0.6 241.75-0.98 240.1-2.55 240.1-5.45L240.1-5.45Q240.1-6.5 240.2-7.05L240.2-7.05 242.4-22.8 237.85-22.8 238.35-26.35 243.1-26.35 244.75-32.45 248.35-32.85 247.45-26.35 253.65-26.35 252.65-22.8 246.95-22.8ZM266.55 0.6Q261.7 0.6 259.08-2.3 256.45-5.2 256.45-10.3L256.45-10.3Q256.45-14 257.83-17.82 259.2-21.65 262.25-24.3 265.3-26.95 270.1-26.95L270.1-26.95Q274.95-26.95 277.55-24.05 280.15-21.15 280.15-16.05L280.15-16.05Q280.15-12.4 278.8-8.58 277.45-4.75 274.4-2.08 271.35 0.6 266.55 0.6L266.55 0.6ZM266.7-3.1Q269.85-3.1 271.8-5.28 273.75-7.45 274.55-10.53 275.35-13.6 275.35-16.55L275.35-16.55Q275.35-23.25 269.95-23.25L269.95-23.25Q266.8-23.25 264.85-21.08 262.9-18.9 262.08-15.83 261.25-12.75 261.25-9.8L261.25-9.8Q261.25-3.1 266.7-3.1L266.7-3.1ZM300.55-26.95Q301.8-26.95 303.2-26.6L303.2-26.6 301.85-22.15Q300.9-22.4 299.7-22.4L299.7-22.4Q297.25-22.4 295.43-20.28 293.6-18.15 292.15-13.95L292.15-13.95 290.15 0 285.6 0 289.3-26.35 293.2-26.35 292.9-20.95Q294.35-23.95 296.32-25.45 298.3-26.95 300.55-26.95L300.55-26.95ZM327.5-26.35L315.3 0.25Q313.25 4.8 310 7.45 306.75 10.1 301.55 10.65L301.55 10.65 301.35 7.05Q304.05 6.6 305.73 5.75 307.4 4.9 308.55 3.58 309.7 2.25 310.9 0L310.9 0 309.2 0 304.15-26.35 308.95-26.35 312.65-3.5 322.75-26.35 327.5-26.35ZM343.95-6.35Q345.3-6.35 346.2-5.45 347.1-4.55 347.1-3.2L347.1-3.2Q347.1-2.3 346.8-1.43 346.5-0.55 345.8 0.75L345.8 0.75 341.4 8.3 338.05 8.3 341.3-0.1Q340.25-1 340.25-2.55L340.25-2.55Q340.25-4.1 341.32-5.23 342.4-6.35 343.95-6.35L343.95-6.35ZM363.8 0.6Q358.95 0.6 356.33-2.3 353.7-5.2 353.7-10.3L353.7-10.3Q353.7-14 355.08-17.82 356.45-21.65 359.5-24.3 362.55-26.95 367.35-26.95L367.35-26.95Q372.2-26.95 374.8-24.05 377.4-21.15 377.4-16.05L377.4-16.05Q377.4-12.4 376.05-8.58 374.7-4.75 371.65-2.08 368.6 0.6 363.8 0.6L363.8 0.6ZM363.95-3.1Q367.1-3.1 369.05-5.28 371-7.45 371.8-10.53 372.6-13.6 372.6-16.55L372.6-16.55Q372.6-23.25 367.2-23.25L367.2-23.25Q364.05-23.25 362.1-21.08 360.15-18.9 359.33-15.83 358.5-12.75 358.5-9.8L358.5-9.8Q358.5-3.1 363.95-3.1L363.95-3.1ZM390 0.6Q386.95 0.6 385.23-1.13 383.5-2.85 383.5-5.9L383.5-5.9Q383.5-6.75 383.65-7.65L383.65-7.65 386.3-26.35 390.85-26.35 388.25-7.85Q388.1-6.95 388.1-6.2L388.1-6.2Q388.1-4.5 388.82-3.75 389.55-3 391-3L391-3Q393.25-3 395.18-4.7 397.1-6.4 399-9.2L399-9.2 401.4-26.35 405.95-26.35 402.25 0 398.35 0 398.7-4.85Q396.75-2.15 394.68-0.78 392.6 0.6 390 0.6L390 0.6ZM426.6-26.95Q427.85-26.95 429.25-26.6L429.25-26.6 427.9-22.15Q426.95-22.4 425.75-22.4L425.75-22.4Q423.3-22.4 421.48-20.28 419.65-18.15 418.2-13.95L418.2-13.95 416.2 0 411.65 0 415.35-26.35 419.25-26.35 418.95-20.95Q420.4-23.95 422.38-25.45 424.35-26.95 426.6-26.95L426.6-26.95ZM447.35-26.35L451.9-26.35 448.2 0 443.65 0 447.35-26.35ZM450.7-32.75Q449.35-32.75 448.55-33.58 447.75-34.4 447.75-35.6L447.75-35.6Q447.75-37.05 448.75-38.02 449.75-39 451.2-39L451.2-39Q452.55-39 453.35-38.2 454.15-37.4 454.15-36.15L454.15-36.15Q454.15-34.7 453.15-33.73 452.15-32.75 450.7-32.75L450.7-32.75ZM473.95-26.95Q476.85-26.95 478.52-25.18 480.2-23.4 480.2-20.3L480.2-20.3Q480.2-19.5 480.05-18.5L480.05-18.5 477.45 0 472.9 0 475.5-18.4Q475.6-19.5 475.6-19.85L475.6-19.85Q475.6-21.6 474.85-22.35 474.1-23.1 472.7-23.1L472.7-23.1Q470.4-23.1 468.27-21.05 466.15-19 464.35-15.8L464.35-15.8 462.15 0 457.6 0 461.3-26.35 465.2-26.35 464.8-21.2Q466.75-23.95 469-25.45 471.25-26.95 473.95-26.95L473.95-26.95ZM502.95-26.95Q505.85-26.95 507.52-25.18 509.2-23.4 509.2-20.3L509.2-20.3Q509.2-19.5 509.05-18.5L509.05-18.5 506.45 0 501.9 0 504.5-18.4Q504.6-19.5 504.6-19.85L504.6-19.85Q504.6-21.6 503.85-22.35 503.1-23.1 501.7-23.1L501.7-23.1Q499.4-23.1 497.27-21.05 495.15-19 493.35-15.8L493.35-15.8 491.15 0 486.6 0 490.3-26.35 494.2-26.35 493.8-21.2Q495.75-23.95 498-25.45 500.25-26.95 502.95-26.95L502.95-26.95ZM525.45 0.6Q520.6 0.6 517.98-2.3 515.35-5.2 515.35-10.3L515.35-10.3Q515.35-14 516.73-17.82 518.1-21.65 521.15-24.3 524.2-26.95 529-26.95L529-26.95Q533.85-26.95 536.45-24.05 539.05-21.15 539.05-16.05L539.05-16.05Q539.05-12.4 537.7-8.58 536.35-4.75 533.3-2.08 530.25 0.6 525.45 0.6L525.45 0.6ZM525.6-3.1Q528.75-3.1 530.7-5.28 532.65-7.45 533.45-10.53 534.25-13.6 534.25-16.55L534.25-16.55Q534.25-23.25 528.85-23.25L528.85-23.25Q525.7-23.25 523.75-21.08 521.8-18.9 520.98-15.83 520.15-12.75 520.15-9.8L520.15-9.8Q520.15-3.1 525.6-3.1L525.6-3.1ZM562.35-26.35L567.35-26.35 554.75 0 549.3 0 544-26.35 548.95-26.35 552.55-4.15 562.35-26.35ZM582.5-26.95Q584.95-26.95 587.17-26.4 589.4-25.85 591.75-24.7L591.75-24.7 589.05-6Q588.95-5.2 588.95-4.9L588.95-4.9Q588.95-4 589.32-3.45 589.7-2.9 590.65-2.55L590.65-2.55 589.35 0.6Q587.25 0.35 586.1-0.7 584.95-1.75 584.7-3.8L584.7-3.8Q583.1-1.75 581.1-0.58 579.1 0.6 576.85 0.6L576.85 0.6Q572.85 0.6 570.65-2.15 568.45-4.9 568.45-9.5L568.45-9.5Q568.45-13.5 569.92-17.5 571.4-21.5 574.55-24.23 577.7-26.95 582.5-26.95L582.5-26.95ZM582.6-23.3Q579.45-23.3 577.37-21.18 575.3-19.05 574.32-15.88 573.35-12.7 573.35-9.45L573.35-9.45Q573.35-6.2 574.5-4.63 575.65-3.05 577.8-3.05L577.8-3.05Q579.85-3.05 581.47-4.3 583.1-5.55 584.85-7.9L584.85-7.9 586.9-22.45Q585.85-22.9 584.87-23.1 583.9-23.3 582.6-23.3L582.6-23.3ZM605.25-22.8L603.05-6.95Q602.95-5.95 602.95-5.65L602.95-5.65Q602.95-4.4 603.52-3.83 604.1-3.25 605.3-3.25L605.3-3.25Q606.2-3.25 607.07-3.53 607.95-3.8 609.1-4.35L609.1-4.35 610.6-1.15Q607.85 0.6 604.75 0.6L604.75 0.6Q601.7 0.6 600.05-0.98 598.4-2.55 598.4-5.45L598.4-5.45Q598.4-6.5 598.5-7.05L598.5-7.05 600.7-22.8 596.15-22.8 596.65-26.35 601.4-26.35 603.05-32.45 606.65-32.85 605.75-26.35 611.95-26.35 610.95-22.8 605.25-22.8ZM618.7-26.35L623.25-26.35 619.55 0 615 0 618.7-26.35ZM622.05-32.75Q620.7-32.75 619.9-33.58 619.1-34.4 619.1-35.6L619.1-35.6Q619.1-37.05 620.1-38.02 621.1-39 622.55-39L622.55-39Q623.9-39 624.7-38.2 625.5-37.4 625.5-36.15L625.5-36.15Q625.5-34.7 624.5-33.73 623.5-32.75 622.05-32.75L622.05-32.75ZM638.8 0.6Q633.95 0.6 631.33-2.3 628.7-5.2 628.7-10.3L628.7-10.3Q628.7-14 630.08-17.82 631.45-21.65 634.5-24.3 637.55-26.95 642.35-26.95L642.35-26.95Q647.2-26.95 649.8-24.05 652.4-21.15 652.4-16.05L652.4-16.05Q652.4-12.4 651.05-8.58 649.7-4.75 646.65-2.08 643.6 0.6 638.8 0.6L638.8 0.6ZM638.95-3.1Q642.1-3.1 644.05-5.28 646-7.45 646.8-10.53 647.6-13.6 647.6-16.55L647.6-16.55Q647.6-23.25 642.2-23.25L642.2-23.25Q639.05-23.25 637.1-21.08 635.15-18.9 634.33-15.83 633.5-12.75 633.5-9.8L633.5-9.8Q633.5-3.1 638.95-3.1L638.95-3.1ZM674.2-26.95Q677.1-26.95 678.77-25.18 680.45-23.4 680.45-20.3L680.45-20.3Q680.45-19.5 680.3-18.5L680.3-18.5 677.7 0 673.15 0 675.75-18.4Q675.85-19.5 675.85-19.85L675.85-19.85Q675.85-21.6 675.1-22.35 674.35-23.1 672.95-23.1L672.95-23.1Q670.65-23.1 668.52-21.05 666.4-19 664.6-15.8L664.6-15.8 662.4 0 657.85 0 661.55-26.35 665.45-26.35 665.05-21.2Q667-23.95 669.25-25.45 671.5-26.95 674.2-26.95L674.2-26.95Z" opacity="1" transform="matrix(1,0,0,1,0,0)" fill="#000000" class="slogan-text-1" data-fill-palette-color="secondary" id="text-1"></path></svg></g></svg></g></svg></g></svg></g><g transform="matrix(1,0,0,1,66.77134322601339,0)"><svg viewBox="0 0 58.45731354797321 59.11830765683976" height="59.11830765683976" width="58.45731354797321"><g><svg xmlns="http://www.w3.org/2000/svg" xmlns:xlink="http://www.w3.org/1999/xlink" version="1.1" x="0" y="0" viewBox="4.8 2 502.3201180714895 508" enable-background="new 0 0 512 512" xml:space="preserve" height="59.11830765683976" width="58.45731354797321" class="icon-icon-0" data-fill-palette-color="accent" id="icon-0"><g fill="#c9f06b" data-fill-palette-color="accent"><path d="M261 162.9C264 162.9 267 162.8 270 162.6L286.2 161.5C305.5 186.3 316.1 217.1 316.1 248.6V264.2H332.6V223.2C332.6 208 337.4 193.2 346.3 180.9L365 182.1C368.4 182.3 371.8 182.4 375.1 182.4 413.1 182.4 447.6 167.9 472.2 141.6 497.1 115 509.3 79 506.8 40.2L504.4 3.5 492.8 10.5C479.3 18.6 460.7 20.5 440.9 22.6 391.6 27.7 330.1 34.1 332.7 149.6L334 169.6C329 176.3 324.9 183.6 322 191.4 316.3 176.7 308.4 162.8 298.5 150.2L299.7 132.5C301.8 29.8 247 24.1 202.9 19.5 185.5 17.7 169.1 16 157.3 9L145.7 2 143.4 36C141.1 70.6 152.1 102.8 174.2 126.5 196.2 150 227 162.9 261 162.9M442.6 39.3C458.7 37.6 475.2 35.9 489.6 30.5L490.3 41.5C492.6 75.7 481.9 107.3 460.2 130.5 438.8 153.4 408.6 166 375.1 166 372.1 166 369.1 165.9 366.1 165.7L361.2 165.4 441 85.5 429.3 73.8 349.4 153.7 349.1 149.1C347 49.2 393.4 44.4 442.6 39.3M159.9 37.1L160.5 28.6C173 33.1 187.3 34.5 201.2 36 244.3 40.5 285 44.7 283.1 132L282.9 134.3 213.7 65 202 76.7 271.3 146 269 146.2C236.3 148.4 206.9 137.2 186.4 115.3 167.3 94.9 157.9 67.1 159.9 37.1" fill="#000000" data-fill-palette-color="accent"></path><path d="M105.9 339.6C123 322.9 145.6 313.7 169.5 313.7H300.1C309.3 313.7 316.7 321.2 316.7 330.3 316.7 339.5 309.2 346.9 300.1 346.9H254.6C238.7 346.9 225.7 359.9 225.7 375.8S238.7 404.7 254.6 404.7H369.6L469.8 313.2C474.5 308.9 481.7 309.1 486.2 313.5 488.5 315.8 489.8 318.9 489.7 322.1 489.7 325.4 488.3 328.4 485.9 330.6L397.6 413C380.7 428.8 358.6 437.5 335.5 437.5H194.1C166.4 437.5 140 448 119.9 467.1L87.6 498 99 510 131.3 479.2C148.3 463 170.6 454.1 194 454.1H335.4C362.7 454.1 388.8 443.8 408.8 425.2L497.1 342.8C502.8 337.5 506 330.2 506.1 322.4S503.2 307.3 497.7 301.8C486.9 291.1 469.7 290.8 458.5 301L363 388.2H254.6C247.8 388.2 242.3 382.7 242.3 375.9S247.8 363.6 254.6 363.6H300.1C318.4 363.6 333.3 348.7 333.3 330.4S318.4 297.2 300.1 297.2H169.5C141.2 297.2 114.5 308.1 94.3 327.9L4.8 415.4 16.4 427.2z" fill="#000000" data-fill-palette-color="accent"></path></g></svg></g></svg></g><g></g></svg></g></svg></g></svg></g></svg></g><defs></defs></svg><rect width="320" height="360" fill="none" stroke="none" visibility="hidden"></rect></g></svg></g></svg>